<?xml version="1.0" encoding="UTF-8" standalone="no"?>
<!-- Created with Inkscape (http://www.inkscape.org/) -->

<svg
   xmlns:dc="http://purl.org/dc/elements/1.1/"
   xmlns:cc="http://creativecommons.org/ns#"
   xmlns:rdf="http://www.w3.org/1999/02/22-rdf-syntax-ns#"
   xmlns:svg="http://www.w3.org/2000/svg"
   xmlns="http://www.w3.org/2000/svg"
   version="1.1"
   width="68.783752"
   height="75.46875"
   id="svg8190">
  <defs
     id="defs8192" />
  <metadata
     id="metadata8195">
    <rdf:RDF>
      <cc:Work
         rdf:about="">
        <dc:format>image/svg+xml</dc:format>
        <dc:type
           rdf:resource="http://purl.org/dc/dcmitype/StillImage" />
        <dc:title></dc:title>
      </cc:Work>
    </rdf:RDF>
  </metadata>
  <g
     transform="translate(-340.60812,-494.62781)"
     id="layer1">
    <g
       transform="matrix(1.25,0,0,-1.25,409.39187,507.37031)"
       id="g4951">
      <path
         d="M 0,0 -27.513,10.194 -55.027,0 l 0.518,-18.276 c 0,0 -0.135,-12.724 9.179,-22.04 5.162,-5.161 12.81,-9.865 17.817,-9.865 5.007,0 12.655,4.703 17.818,9.865 9.313,9.316 9.179,22.04 9.179,22.04 L 0,0 z m -8.276,-22.326 -15.088,0 0,-18.774 -7.631,0.027 0,18.747 -16.434,0 1.346,7.632 15.088,0 0,15.722 7.631,0.038 0,-15.76 16.433,0 -1.345,-7.632 z"
         id="path4953"
         style="fill:#95aad6;fill-opacity:1;fill-rule:nonzero;stroke:none" />
    </g>
  </g>
</svg>
